<svg xmlns="http://www.w3.org/2000/svg" xmlns:xlink="http://www.w3.org/1999/xlink" width="500" zoomAndPan="magnify" viewBox="0 0 375 374.999991" height="500" preserveAspectRatio="xMidYMid meet" version="1.2"><defs/><g id="f8bfac57a2"><g style="fill:#ff914d;fill-opacity:1;"><g transform="translate(16.404478, 209.624986)"><path style="stroke:none" d="M 23.203125 0.671875 L 18.171875 0.671875 C 16.765625 0.671875 15.632812 0.253906 14.78125 -0.578125 C 13.9375 -1.421875 13.257812 -2.429688 12.75 -3.609375 L 3.671875 -24.234375 C 3.328125 -24.984375 3.035156 -25.5625 2.796875 -25.96875 C 2.566406 -26.382812 2.117188 -26.859375 1.453125 -27.390625 C 0.953125 -27.796875 0.566406 -28.179688 0.296875 -28.546875 C 0.0351562 -28.921875 -0.09375 -29.453125 -0.09375 -30.140625 C -0.09375 -31.109375 0.222656 -31.832031 0.859375 -32.3125 C 1.492188 -32.800781 2.257812 -33.046875 3.15625 -33.046875 L 20.546875 -33.046875 C 21.453125 -33.046875 22.160156 -32.785156 22.671875 -32.265625 C 23.191406 -31.742188 23.453125 -31.035156 23.453125 -30.140625 C 23.453125 -29.359375 23.25 -28.765625 22.84375 -28.359375 C 22.4375 -27.953125 21.960938 -27.601562 21.421875 -27.3125 C 20.878906 -27.019531 20.40625 -26.679688 20 -26.296875 C 19.59375 -25.910156 19.390625 -25.335938 19.390625 -24.578125 C 19.390625 -24.109375 19.445312 -23.640625 19.5625 -23.171875 C 19.6875 -22.710938 19.832031 -22.269531 20 -21.84375 L 24.9375 -9.203125 L 29.6875 -21.328125 C 29.851562 -21.796875 29.992188 -22.269531 30.109375 -22.75 C 30.234375 -23.238281 30.296875 -23.734375 30.296875 -24.234375 C 30.296875 -25.085938 30.097656 -25.722656 29.703125 -26.140625 C 29.304688 -26.566406 28.835938 -26.921875 28.296875 -27.203125 C 27.753906 -27.484375 27.285156 -27.832031 26.890625 -28.25 C 26.492188 -28.664062 26.296875 -29.296875 26.296875 -30.140625 C 26.296875 -31.109375 26.597656 -31.832031 27.203125 -32.3125 C 27.804688 -32.800781 28.566406 -33.046875 29.484375 -33.046875 L 38.421875 -33.046875 C 39.347656 -33.046875 40.117188 -32.804688 40.734375 -32.328125 C 41.347656 -31.859375 41.65625 -31.128906 41.65625 -30.140625 C 41.65625 -29.335938 41.507812 -28.757812 41.21875 -28.40625 C 40.925781 -28.050781 40.5 -27.628906 39.9375 -27.140625 C 39.125 -26.398438 38.550781 -25.726562 38.21875 -25.125 C 37.882812 -24.53125 37.515625 -23.738281 37.109375 -22.75 C 35.734375 -19.5 34.363281 -16.234375 33 -12.953125 C 31.644531 -9.671875 30.207031 -6.425781 28.6875 -3.21875 C 28.101562 -2.039062 27.390625 -1.097656 26.546875 -0.390625 C 25.710938 0.316406 24.597656 0.671875 23.203125 0.671875 Z M 23.203125 0.671875 "/></g></g><g style="fill:#ff914d;fill-opacity:1;"><g transform="translate(56.447342, 209.624986)"><path style="stroke:none" d="M 1.296875 -7.421875 C 1.296875 -9.398438 1.753906 -11.050781 2.671875 -12.375 C 3.597656 -13.695312 4.804688 -14.757812 6.296875 -15.5625 C 7.796875 -16.375 9.414062 -16.953125 11.15625 -17.296875 C 12.90625 -17.640625 14.585938 -17.8125 16.203125 -17.8125 C 16.671875 -17.8125 17.148438 -17.804688 17.640625 -17.796875 C 18.140625 -17.785156 18.625 -17.738281 19.09375 -17.65625 L 19.09375 -26.03125 C 19.09375 -26.570312 18.976562 -27.195312 18.75 -27.90625 C 18.53125 -28.613281 18.078125 -28.96875 17.390625 -28.96875 C 16.722656 -28.96875 16.304688 -28.691406 16.140625 -28.140625 C 15.984375 -27.597656 15.90625 -27.082031 15.90625 -26.59375 C 15.90625 -26.375 15.910156 -26.148438 15.921875 -25.921875 C 15.929688 -25.691406 15.9375 -25.460938 15.9375 -25.234375 C 15.9375 -23.015625 15.171875 -21.457031 13.640625 -20.5625 C 12.117188 -19.675781 10.378906 -19.234375 8.421875 -19.234375 C 6.785156 -19.234375 5.363281 -19.597656 4.15625 -20.328125 C 2.957031 -21.054688 2.359375 -22.347656 2.359375 -24.203125 C 2.359375 -24.929688 2.5 -25.640625 2.78125 -26.328125 C 3.070312 -27.015625 3.445312 -27.628906 3.90625 -28.171875 C 5.21875 -29.753906 6.867188 -30.96875 8.859375 -31.8125 C 10.847656 -32.65625 12.941406 -33.226562 15.140625 -33.53125 C 17.347656 -33.84375 19.421875 -34 21.359375 -34 C 23.554688 -34 25.566406 -33.6875 27.390625 -33.0625 C 29.222656 -32.445312 30.6875 -31.410156 31.78125 -29.953125 C 32.875 -28.503906 33.421875 -26.554688 33.421875 -24.109375 L 33.421875 -9.234375 C 33.421875 -8.859375 33.503906 -8.53125 33.671875 -8.25 C 33.847656 -7.976562 34.144531 -7.84375 34.5625 -7.84375 C 34.882812 -7.84375 35.15625 -7.941406 35.375 -8.140625 C 35.601562 -8.347656 35.878906 -8.453125 36.203125 -8.453125 C 36.828125 -8.453125 37.296875 -8.234375 37.609375 -7.796875 C 37.921875 -7.367188 38.078125 -6.867188 38.078125 -6.296875 C 38.078125 -4.785156 37.617188 -3.488281 36.703125 -2.40625 C 35.785156 -1.320312 34.648438 -0.492188 33.296875 0.078125 C 31.941406 0.648438 30.578125 0.9375 29.203125 0.9375 C 27.585938 0.9375 25.957031 0.582031 24.3125 -0.125 C 22.664062 -0.832031 21.53125 -1.941406 20.90625 -3.453125 C 19.8125 -1.921875 18.3125 -0.804688 16.40625 -0.109375 C 14.5 0.585938 12.632812 0.9375 10.8125 0.9375 C 9.132812 0.9375 7.566406 0.617188 6.109375 -0.015625 C 4.660156 -0.648438 3.492188 -1.585938 2.609375 -2.828125 C 1.734375 -4.078125 1.296875 -5.609375 1.296875 -7.421875 Z M 15.84375 -10.265625 C 15.84375 -9.398438 16.046875 -8.582031 16.453125 -7.8125 C 16.859375 -7.050781 17.554688 -6.671875 18.546875 -6.671875 C 18.742188 -6.671875 18.925781 -6.695312 19.09375 -6.75 L 19.09375 -13.421875 C 18.726562 -13.566406 18.351562 -13.640625 17.96875 -13.640625 C 17.15625 -13.640625 16.597656 -13.238281 16.296875 -12.4375 C 15.992188 -11.632812 15.84375 -10.910156 15.84375 -10.265625 Z M 15.84375 -10.265625 "/></g></g><g style="fill:#ff914d;fill-opacity:1;"><g transform="translate(93.908887, 209.624986)"><path style="stroke:none" d="M 38.96875 2.578125 C 38.96875 4.367188 38.410156 5.867188 37.296875 7.078125 C 36.179688 8.296875 34.734375 9.28125 32.953125 10.03125 C 31.179688 10.78125 29.28125 11.347656 27.25 11.734375 C 25.21875 12.128906 23.257812 12.394531 21.375 12.53125 C 19.488281 12.675781 17.914062 12.75 16.65625 12.75 C 15.789062 12.75 14.695312 12.71875 13.375 12.65625 C 12.050781 12.601562 10.664062 12.46875 9.21875 12.25 C 7.78125 12.039062 6.429688 11.703125 5.171875 11.234375 C 3.921875 10.773438 2.894531 10.132812 2.09375 9.3125 C 1.300781 8.5 0.90625 7.472656 0.90625 6.234375 C 0.90625 4.679688 1.503906 3.46875 2.703125 2.59375 C 3.910156 1.726562 5.363281 1.078125 7.0625 0.640625 C 6.289062 0.335938 5.644531 -0.09375 5.125 -0.65625 C 4.613281 -1.226562 4.359375 -2 4.359375 -2.96875 C 4.359375 -4.257812 4.769531 -5.289062 5.59375 -6.0625 C 6.425781 -6.84375 7.476562 -7.429688 8.75 -7.828125 C 10.03125 -8.222656 11.34375 -8.503906 12.6875 -8.671875 C 10.769531 -9.128906 8.976562 -9.816406 7.3125 -10.734375 C 5.644531 -11.660156 4.300781 -12.898438 3.28125 -14.453125 C 2.257812 -16.003906 1.75 -17.921875 1.75 -20.203125 C 1.75 -22.648438 2.222656 -24.726562 3.171875 -26.4375 C 4.128906 -28.144531 5.414062 -29.53125 7.03125 -30.59375 C 8.644531 -31.664062 10.457031 -32.460938 12.46875 -32.984375 C 14.476562 -33.515625 16.539062 -33.8125 18.65625 -33.875 C 19.320312 -35.644531 20.117188 -37.410156 21.046875 -39.171875 C 21.984375 -40.929688 23.175781 -42.398438 24.625 -43.578125 C 26.082031 -44.765625 27.882812 -45.359375 30.03125 -45.359375 C 31.800781 -45.359375 33.257812 -44.84375 34.40625 -43.8125 C 35.5625 -42.78125 36.140625 -41.363281 36.140625 -39.5625 C 36.140625 -38.09375 35.773438 -36.757812 35.046875 -35.5625 C 34.328125 -34.375 33.140625 -33.78125 31.484375 -33.78125 C 30.328125 -33.78125 29.4375 -34.078125 28.8125 -34.671875 C 28.1875 -35.265625 27.644531 -35.859375 27.1875 -36.453125 C 26.738281 -37.054688 26.203125 -37.359375 25.578125 -37.359375 C 24.910156 -37.359375 24.34375 -36.941406 23.875 -36.109375 C 23.40625 -35.285156 23.03125 -34.5 22.75 -33.75 C 25.050781 -33.46875 27.234375 -32.847656 29.296875 -31.890625 C 31.359375 -30.929688 33.039062 -29.582031 34.34375 -27.84375 C 35.644531 -26.101562 36.296875 -23.910156 36.296875 -21.265625 C 36.296875 -18.921875 35.816406 -16.90625 34.859375 -15.21875 C 33.898438 -13.53125 32.617188 -12.144531 31.015625 -11.0625 C 29.421875 -9.988281 27.628906 -9.195312 25.640625 -8.6875 C 23.648438 -8.1875 21.617188 -7.9375 19.546875 -7.9375 C 18.878906 -7.9375 18.222656 -7.957031 17.578125 -8 C 17.328125 -7.738281 17.203125 -7.484375 17.203125 -7.234375 C 17.203125 -6.796875 17.515625 -6.484375 18.140625 -6.296875 C 18.773438 -6.117188 19.535156 -6.007812 20.421875 -5.96875 C 21.304688 -5.925781 22.140625 -5.914062 22.921875 -5.9375 C 23.710938 -5.957031 24.253906 -5.96875 24.546875 -5.96875 C 26.097656 -5.96875 27.710938 -5.894531 29.390625 -5.75 C 31.066406 -5.613281 32.628906 -5.273438 34.078125 -4.734375 C 35.535156 -4.203125 36.710938 -3.359375 37.609375 -2.203125 C 38.515625 -1.054688 38.96875 0.535156 38.96875 2.578125 Z M 18.09375 -28.9375 C 17.476562 -28.9375 17.039062 -28.675781 16.78125 -28.15625 C 16.519531 -27.644531 16.363281 -27.054688 16.3125 -26.390625 C 16.257812 -25.722656 16.234375 -25.175781 16.234375 -24.75 C 16.234375 -24.164062 16.269531 -23.234375 16.34375 -21.953125 C 16.414062 -20.671875 16.570312 -19.332031 16.8125 -17.9375 C 17.050781 -16.539062 17.410156 -15.351562 17.890625 -14.375 C 18.367188 -13.394531 19.03125 -12.90625 19.875 -12.90625 C 20.539062 -12.90625 21.015625 -13.144531 21.296875 -13.625 C 21.578125 -14.113281 21.742188 -14.679688 21.796875 -15.328125 C 21.847656 -15.972656 21.875 -16.53125 21.875 -17 C 21.875 -17.625 21.84375 -18.585938 21.78125 -19.890625 C 21.71875 -21.191406 21.570312 -22.535156 21.34375 -23.921875 C 21.113281 -25.304688 20.738281 -26.488281 20.21875 -27.46875 C 19.707031 -28.445312 19 -28.9375 18.09375 -28.9375 Z M 12.484375 3.640625 C 12.484375 4.304688 12.8125 4.832031 13.46875 5.21875 C 14.125 5.613281 14.921875 5.90625 15.859375 6.09375 C 16.796875 6.289062 17.691406 6.414062 18.546875 6.46875 C 19.410156 6.519531 20.046875 6.546875 20.453125 6.546875 C 20.929688 6.546875 21.644531 6.472656 22.59375 6.328125 C 23.550781 6.191406 24.4375 5.941406 25.25 5.578125 C 26.070312 5.210938 26.484375 4.6875 26.484375 4 C 26.484375 3.03125 26.078125 2.351562 25.265625 1.96875 C 24.460938 1.582031 23.554688 1.351562 22.546875 1.28125 C 21.535156 1.21875 20.695312 1.1875 20.03125 1.1875 C 19.039062 1.1875 18.050781 1.207031 17.0625 1.25 C 16.070312 1.300781 15.082031 1.335938 14.09375 1.359375 C 13.644531 1.679688 13.265625 2.035156 12.953125 2.421875 C 12.640625 2.804688 12.484375 3.210938 12.484375 3.640625 Z M 12.484375 3.640625 "/></g></g><g style="fill:#ff914d;fill-opacity:1;"><g transform="translate(132.112558, 209.624986)"><path style="stroke:none" d="M 13.390625 0.9375 C 11.347656 0.9375 9.644531 0.414062 8.28125 -0.625 C 6.914062 -1.664062 5.898438 -3.023438 5.234375 -4.703125 C 4.566406 -6.390625 4.234375 -8.15625 4.234375 -10 L 4.234375 -20.96875 C 4.234375 -21.769531 4.164062 -22.335938 4.03125 -22.671875 C 3.90625 -23.003906 3.539062 -23.4375 2.9375 -23.96875 C 2.457031 -24.40625 2.007812 -24.8125 1.59375 -25.1875 C 1.175781 -25.5625 0.96875 -26.113281 0.96875 -26.84375 C 0.96875 -27.6875 1.238281 -28.347656 1.78125 -28.828125 C 2.332031 -29.304688 2.960938 -29.6875 3.671875 -29.96875 L 10.78125 -32.78125 C 11.613281 -33.125 12.453125 -33.425781 13.296875 -33.6875 C 14.148438 -33.945312 15.039062 -34.078125 15.96875 -34.078125 C 16.851562 -34.078125 17.53125 -33.769531 18 -33.15625 C 18.476562 -32.539062 18.71875 -31.820312 18.71875 -31 L 18.71875 -13.484375 C 18.71875 -12.878906 18.785156 -12.234375 18.921875 -11.546875 C 19.066406 -10.859375 19.34375 -10.269531 19.75 -9.78125 C 20.15625 -9.300781 20.742188 -9.0625 21.515625 -9.0625 C 22.316406 -9.0625 23.015625 -9.238281 23.609375 -9.59375 C 24.210938 -9.945312 24.765625 -10.382812 25.265625 -10.90625 L 25.265625 -20.96875 C 25.265625 -21.789062 25.191406 -22.390625 25.046875 -22.765625 C 24.910156 -23.140625 24.507812 -23.585938 23.84375 -24.109375 C 23.34375 -24.492188 22.910156 -24.867188 22.546875 -25.234375 C 22.179688 -25.597656 22 -26.132812 22 -26.84375 C 22 -27.6875 22.273438 -28.347656 22.828125 -28.828125 C 23.378906 -29.304688 24.007812 -29.6875 24.71875 -29.96875 L 31.8125 -32.78125 C 32.65625 -33.125 33.5 -33.425781 34.34375 -33.6875 C 35.195312 -33.945312 36.082031 -34.078125 37 -34.078125 C 37.882812 -34.078125 38.566406 -33.773438 39.046875 -33.171875 C 39.535156 -32.566406 39.78125 -31.84375 39.78125 -31 L 39.78125 -9.71875 C 39.78125 -9.113281 39.804688 -8.515625 39.859375 -7.921875 C 39.910156 -7.328125 40.15625 -6.785156 40.59375 -6.296875 C 41.125 -5.710938 41.59375 -5.226562 42 -4.84375 C 42.414062 -4.457031 42.625 -3.820312 42.625 -2.9375 C 42.625 -1.96875 42.332031 -1.234375 41.75 -0.734375 C 41.164062 -0.242188 40.398438 0 39.453125 0 L 32.109375 0 C 30.472656 0 29.035156 -0.609375 27.796875 -1.828125 C 26.554688 -3.054688 25.9375 -4.476562 25.9375 -6.09375 C 24.757812 -4.957031 23.46875 -3.847656 22.0625 -2.765625 C 20.664062 -1.691406 19.226562 -0.804688 17.75 -0.109375 C 16.28125 0.585938 14.828125 0.9375 13.390625 0.9375 Z M 13.390625 0.9375 "/></g></g><g style="fill:#ff914d;fill-opacity:1;"><g transform="translate(176.898619, 209.624986)"><path style="stroke:none" d="M 16.578125 -34.078125 C 17.460938 -34.078125 18.144531 -33.773438 18.625 -33.171875 C 19.113281 -32.566406 19.359375 -31.84375 19.359375 -31 L 19.359375 -9.71875 C 19.359375 -9.113281 19.382812 -8.503906 19.4375 -7.890625 C 19.488281 -7.273438 19.734375 -6.742188 20.171875 -6.296875 C 20.722656 -5.691406 21.1875 -5.21875 21.5625 -4.875 C 21.945312 -4.53125 22.140625 -3.882812 22.140625 -2.9375 C 22.140625 -1.988281 21.84375 -1.257812 21.25 -0.75 C 20.65625 -0.25 19.894531 0 18.96875 0 L 5.265625 0 C 4.335938 0 3.578125 -0.242188 2.984375 -0.734375 C 2.390625 -1.234375 2.09375 -1.96875 2.09375 -2.9375 C 2.09375 -3.863281 2.273438 -4.515625 2.640625 -4.890625 C 3.003906 -5.265625 3.476562 -5.734375 4.0625 -6.296875 C 4.488281 -6.722656 4.726562 -7.257812 4.78125 -7.90625 C 4.84375 -8.550781 4.875 -9.15625 4.875 -9.71875 L 4.875 -20.96875 C 4.875 -21.40625 4.835938 -21.851562 4.765625 -22.3125 C 4.703125 -22.769531 4.523438 -23.160156 4.234375 -23.484375 C 4.140625 -23.597656 4.035156 -23.6875 3.921875 -23.75 C 3.804688 -23.8125 3.703125 -23.882812 3.609375 -23.96875 C 3.140625 -24.46875 2.703125 -24.875 2.296875 -25.1875 C 1.898438 -25.5 1.703125 -26.050781 1.703125 -26.84375 C 1.703125 -27.707031 1.972656 -28.375 2.515625 -28.84375 C 3.054688 -29.3125 3.691406 -29.6875 4.421875 -29.96875 L 11.390625 -32.78125 C 12.203125 -33.101562 13.050781 -33.398438 13.9375 -33.671875 C 14.820312 -33.941406 15.703125 -34.078125 16.578125 -34.078125 Z M 11.75 -34.203125 C 10.375 -34.203125 8.984375 -34.40625 7.578125 -34.8125 C 6.179688 -35.21875 5.015625 -35.898438 4.078125 -36.859375 C 3.148438 -37.816406 2.6875 -39.113281 2.6875 -40.75 C 2.6875 -42.382812 3.15625 -43.671875 4.09375 -44.609375 C 5.039062 -45.546875 6.210938 -46.207031 7.609375 -46.59375 C 9.015625 -46.976562 10.394531 -47.171875 11.75 -47.171875 C 13.101562 -47.171875 14.484375 -46.976562 15.890625 -46.59375 C 17.296875 -46.207031 18.476562 -45.546875 19.4375 -44.609375 C 20.394531 -43.671875 20.875 -42.382812 20.875 -40.75 C 20.875 -39.09375 20.398438 -37.785156 19.453125 -36.828125 C 18.515625 -35.867188 17.335938 -35.191406 15.921875 -34.796875 C 14.515625 -34.398438 13.125 -34.203125 11.75 -34.203125 Z M 11.75 -34.203125 "/></g></g><g style="fill:#ff914d;fill-opacity:1;"><g transform="translate(200.453248, 209.624986)"><path style="stroke:none" d="M 16.515625 -34.078125 C 17.398438 -34.078125 18.070312 -33.769531 18.53125 -33.15625 C 19 -32.539062 19.234375 -31.820312 19.234375 -31 L 19.234375 -28.03125 C 20.929688 -29.601562 22.800781 -31.003906 24.84375 -32.234375 C 26.882812 -33.460938 28.90625 -34.078125 30.90625 -34.078125 C 33 -34.078125 34.734375 -33.554688 36.109375 -32.515625 C 37.484375 -31.484375 38.519531 -30.140625 39.21875 -28.484375 C 39.914062 -26.828125 40.265625 -25.046875 40.265625 -23.140625 L 40.265625 -9.71875 C 40.265625 -9.113281 40.289062 -8.519531 40.34375 -7.9375 C 40.394531 -7.351562 40.628906 -6.804688 41.046875 -6.296875 C 41.535156 -5.671875 41.96875 -5.1875 42.34375 -4.84375 C 42.71875 -4.5 42.90625 -3.863281 42.90625 -2.9375 C 42.90625 -1.988281 42.613281 -1.257812 42.03125 -0.75 C 41.457031 -0.25 40.707031 0 39.78125 0 L 26.296875 0 C 25.390625 0 24.691406 -0.265625 24.203125 -0.796875 C 23.722656 -1.335938 23.484375 -2.050781 23.484375 -2.9375 C 23.484375 -3.75 23.671875 -4.382812 24.046875 -4.84375 C 24.429688 -5.3125 24.8125 -5.796875 25.1875 -6.296875 C 25.5625 -6.804688 25.75 -7.523438 25.75 -8.453125 L 25.75 -19.65625 C 25.75 -20.664062 25.546875 -21.648438 25.140625 -22.609375 C 24.742188 -23.578125 23.925781 -24.0625 22.6875 -24.0625 C 21.925781 -24.0625 21.273438 -23.914062 20.734375 -23.625 C 20.203125 -23.34375 19.703125 -22.972656 19.234375 -22.515625 L 19.234375 -9.328125 C 19.234375 -8.742188 19.253906 -8.15625 19.296875 -7.5625 C 19.335938 -6.96875 19.550781 -6.425781 19.9375 -5.9375 C 20.382812 -5.394531 20.757812 -4.957031 21.0625 -4.625 C 21.363281 -4.289062 21.515625 -3.726562 21.515625 -2.9375 C 21.515625 -2.050781 21.269531 -1.335938 20.78125 -0.796875 C 20.300781 -0.265625 19.613281 0 18.71875 0 L 5.234375 0 C 4.304688 0 3.550781 -0.25 2.96875 -0.75 C 2.382812 -1.257812 2.09375 -1.988281 2.09375 -2.9375 C 2.09375 -3.644531 2.226562 -4.195312 2.5 -4.59375 C 2.769531 -4.988281 3.078125 -5.359375 3.421875 -5.703125 C 3.765625 -6.054688 4.070312 -6.476562 4.34375 -6.96875 C 4.613281 -7.46875 4.75 -8.144531 4.75 -9 L 4.75 -20.96875 C 4.75 -21.9375 4.597656 -22.664062 4.296875 -23.15625 C 3.992188 -23.65625 3.632812 -24.050781 3.21875 -24.34375 C 2.8125 -24.632812 2.457031 -24.953125 2.15625 -25.296875 C 1.851562 -25.640625 1.703125 -26.15625 1.703125 -26.84375 C 1.703125 -27.6875 1.984375 -28.347656 2.546875 -28.828125 C 3.109375 -29.304688 3.734375 -29.6875 4.421875 -29.96875 L 11.390625 -32.78125 C 12.203125 -33.125 13.035156 -33.425781 13.890625 -33.6875 C 14.742188 -33.945312 15.617188 -34.078125 16.515625 -34.078125 Z M 16.515625 -34.078125 "/></g></g><g style="fill:#ff914d;fill-opacity:1;"><g transform="translate(244.787565, 209.624986)"><path style="stroke:none" d="M 16.609375 -48.53125 C 17.492188 -48.53125 18.171875 -48.222656 18.640625 -47.609375 C 19.117188 -46.992188 19.359375 -46.28125 19.359375 -45.46875 L 19.359375 -28 C 21.078125 -29.570312 22.960938 -30.976562 25.015625 -32.21875 C 27.078125 -33.457031 29.140625 -34.078125 31.203125 -34.078125 C 33.285156 -34.078125 35.03125 -33.5625 36.4375 -32.53125 C 37.851562 -31.507812 38.914062 -30.171875 39.625 -28.515625 C 40.332031 -26.859375 40.6875 -25.066406 40.6875 -23.140625 L 40.6875 -9.71875 C 40.6875 -8.957031 40.707031 -8.375 40.75 -7.96875 C 40.789062 -7.5625 40.925781 -7.191406 41.15625 -6.859375 C 41.382812 -6.523438 41.753906 -6.066406 42.265625 -5.484375 C 42.691406 -5.015625 42.988281 -4.640625 43.15625 -4.359375 C 43.332031 -4.078125 43.421875 -3.601562 43.421875 -2.9375 C 43.421875 -1.988281 43.128906 -1.257812 42.546875 -0.75 C 41.972656 -0.25 41.222656 0 40.296875 0 L 26.6875 0 C 25.78125 0 25.078125 -0.265625 24.578125 -0.796875 C 24.085938 -1.335938 23.84375 -2.050781 23.84375 -2.9375 C 23.84375 -3.75 24.035156 -4.367188 24.421875 -4.796875 C 24.804688 -5.234375 25.191406 -5.710938 25.578125 -6.234375 C 25.972656 -6.765625 26.171875 -7.546875 26.171875 -8.578125 L 26.171875 -19.65625 C 26.171875 -20.707031 25.957031 -21.703125 25.53125 -22.640625 C 25.113281 -23.585938 24.269531 -24.0625 23 -24.0625 C 22.226562 -24.0625 21.550781 -23.914062 20.96875 -23.625 C 20.382812 -23.34375 19.847656 -22.972656 19.359375 -22.515625 L 19.359375 -8.875 C 19.359375 -7.882812 19.472656 -7.132812 19.703125 -6.625 C 19.941406 -6.125 20.21875 -5.722656 20.53125 -5.421875 C 20.84375 -5.117188 21.117188 -4.796875 21.359375 -4.453125 C 21.597656 -4.109375 21.71875 -3.601562 21.71875 -2.9375 C 21.71875 -2.050781 21.46875 -1.335938 20.96875 -0.796875 C 20.476562 -0.265625 19.78125 0 18.875 0 L 5.265625 0 C 4.335938 0 3.578125 -0.242188 2.984375 -0.734375 C 2.390625 -1.234375 2.09375 -1.96875 2.09375 -2.9375 C 2.09375 -3.664062 2.234375 -4.226562 2.515625 -4.625 C 2.796875 -5.03125 3.113281 -5.382812 3.46875 -5.6875 C 3.820312 -6 4.140625 -6.398438 4.421875 -6.890625 C 4.703125 -7.390625 4.84375 -8.101562 4.84375 -9.03125 L 4.84375 -35.453125 C 4.84375 -36.421875 4.6875 -37.144531 4.375 -37.625 C 4.0625 -38.113281 3.691406 -38.5 3.265625 -38.78125 C 2.847656 -39.0625 2.484375 -39.375 2.171875 -39.71875 C 1.859375 -40.0625 1.703125 -40.585938 1.703125 -41.296875 C 1.703125 -42.140625 1.984375 -42.800781 2.546875 -43.28125 C 3.109375 -43.769531 3.734375 -44.148438 4.421875 -44.421875 L 11.453125 -47.234375 C 12.273438 -47.554688 13.113281 -47.851562 13.96875 -48.125 C 14.832031 -48.394531 15.710938 -48.53125 16.609375 -48.53125 Z M 16.609375 -48.53125 "/></g></g><g style="fill:#ff914d;fill-opacity:1;"><g transform="translate(289.638172, 209.624986)"><path style="stroke:none" d="M 1.296875 -7.421875 C 1.296875 -9.398438 1.753906 -11.050781 2.671875 -12.375 C 3.597656 -13.695312 4.804688 -14.757812 6.296875 -15.5625 C 7.796875 -16.375 9.414062 -16.953125 11.15625 -17.296875 C 12.90625 -17.640625 14.585938 -17.8125 16.203125 -17.8125 C 16.671875 -17.8125 17.148438 -17.804688 17.640625 -17.796875 C 18.140625 -17.785156 18.625 -17.738281 19.09375 -17.65625 L 19.09375 -26.03125 C 19.09375 -26.570312 18.976562 -27.195312 18.75 -27.90625 C 18.53125 -28.613281 18.078125 -28.96875 17.390625 -28.96875 C 16.722656 -28.96875 16.304688 -28.691406 16.140625 -28.140625 C 15.984375 -27.597656 15.90625 -27.082031 15.90625 -26.59375 C 15.90625 -26.375 15.910156 -26.148438 15.921875 -25.921875 C 15.929688 -25.691406 15.9375 -25.460938 15.9375 -25.234375 C 15.9375 -23.015625 15.171875 -21.457031 13.640625 -20.5625 C 12.117188 -19.675781 10.378906 -19.234375 8.421875 -19.234375 C 6.785156 -19.234375 5.363281 -19.597656 4.15625 -20.328125 C 2.957031 -21.054688 2.359375 -22.347656 2.359375 -24.203125 C 2.359375 -24.929688 2.5 -25.640625 2.78125 -26.328125 C 3.070312 -27.015625 3.445312 -27.628906 3.90625 -28.171875 C 5.21875 -29.753906 6.867188 -30.96875 8.859375 -31.8125 C 10.847656 -32.65625 12.941406 -33.226562 15.140625 -33.53125 C 17.347656 -33.84375 19.421875 -34 21.359375 -34 C 23.554688 -34 25.566406 -33.6875 27.390625 -33.0625 C 29.222656 -32.445312 30.6875 -31.410156 31.78125 -29.953125 C 32.875 -28.503906 33.421875 -26.554688 33.421875 -24.109375 L 33.421875 -9.234375 C 33.421875 -8.859375 33.503906 -8.53125 33.671875 -8.25 C 33.847656 -7.976562 34.144531 -7.84375 34.5625 -7.84375 C 34.882812 -7.84375 35.15625 -7.941406 35.375 -8.140625 C 35.601562 -8.347656 35.878906 -8.453125 36.203125 -8.453125 C 36.828125 -8.453125 37.296875 -8.234375 37.609375 -7.796875 C 37.921875 -7.367188 38.078125 -6.867188 38.078125 -6.296875 C 38.078125 -4.785156 37.617188 -3.488281 36.703125 -2.40625 C 35.785156 -1.320312 34.648438 -0.492188 33.296875 0.078125 C 31.941406 0.648438 30.578125 0.9375 29.203125 0.9375 C 27.585938 0.9375 25.957031 0.582031 24.3125 -0.125 C 22.664062 -0.832031 21.53125 -1.941406 20.90625 -3.453125 C 19.8125 -1.921875 18.3125 -0.804688 16.40625 -0.109375 C 14.5 0.585938 12.632812 0.9375 10.8125 0.9375 C 9.132812 0.9375 7.566406 0.617188 6.109375 -0.015625 C 4.660156 -0.648438 3.492188 -1.585938 2.609375 -2.828125 C 1.734375 -4.078125 1.296875 -5.609375 1.296875 -7.421875 Z M 15.84375 -10.265625 C 15.84375 -9.398438 16.046875 -8.582031 16.453125 -7.8125 C 16.859375 -7.050781 17.554688 -6.671875 18.546875 -6.671875 C 18.742188 -6.671875 18.925781 -6.695312 19.09375 -6.75 L 19.09375 -13.421875 C 18.726562 -13.566406 18.351562 -13.640625 17.96875 -13.640625 C 17.15625 -13.640625 16.597656 -13.238281 16.296875 -12.4375 C 15.992188 -11.632812 15.84375 -10.910156 15.84375 -10.265625 Z M 15.84375 -10.265625 "/></g></g><g style="fill:#ff914d;fill-opacity:1;"><g transform="translate(327.099717, 209.624986)"><path style="stroke:none" d="M 16.453125 -28.546875 C 15.722656 -28.546875 15.066406 -28.382812 14.484375 -28.0625 C 13.898438 -27.75 13.609375 -27.171875 13.609375 -26.328125 C 13.609375 -25.640625 13.769531 -25.113281 14.09375 -24.75 C 14.414062 -24.382812 14.878906 -24.070312 15.484375 -23.8125 C 16.128906 -23.53125 16.804688 -23.320312 17.515625 -23.1875 C 18.222656 -23.0625 18.910156 -22.925781 19.578125 -22.78125 C 21.554688 -22.351562 23.40625 -21.625 25.125 -20.59375 C 26.851562 -19.570312 28.25 -18.257812 29.3125 -16.65625 C 30.375 -15.0625 30.90625 -13.164062 30.90625 -10.96875 C 30.90625 -8.019531 30.238281 -5.675781 28.90625 -3.9375 C 27.570312 -2.195312 25.800781 -0.945312 23.59375 -0.1875 C 21.394531 0.5625 18.984375 0.9375 16.359375 0.9375 C 15.691406 0.9375 14.769531 0.847656 13.59375 0.671875 C 12.425781 0.503906 11.5625 0.269531 11 -0.03125 L 10.96875 -0.03125 C 10.75 -0.132812 10.390625 -0.25 9.890625 -0.375 C 9.398438 -0.507812 9.039062 -0.578125 8.8125 -0.578125 C 8.144531 -0.578125 7.570312 -0.316406 7.09375 0.203125 C 6.625 0.734375 6.046875 1 5.359375 1 C 4.429688 1 3.703125 0.695312 3.171875 0.09375 C 2.648438 -0.507812 2.253906 -1.222656 1.984375 -2.046875 C 1.710938 -2.878906 1.472656 -3.648438 1.265625 -4.359375 C 1.109375 -4.960938 0.929688 -5.554688 0.734375 -6.140625 C 0.546875 -6.734375 0.453125 -7.34375 0.453125 -7.96875 C 0.453125 -9.082031 0.753906 -9.984375 1.359375 -10.671875 C 1.960938 -11.367188 2.832031 -11.71875 3.96875 -11.71875 C 5.082031 -11.71875 6.003906 -11.472656 6.734375 -10.984375 C 7.472656 -10.503906 8.125 -9.90625 8.6875 -9.1875 C 9.257812 -8.476562 9.84375 -7.765625 10.4375 -7.046875 C 11.03125 -6.328125 11.742188 -5.722656 12.578125 -5.234375 C 13.421875 -4.753906 14.476562 -4.515625 15.75 -4.515625 C 16.625 -4.515625 17.285156 -4.773438 17.734375 -5.296875 C 18.191406 -5.828125 18.421875 -6.515625 18.421875 -7.359375 C 18.421875 -8.554688 18.097656 -9.328125 17.453125 -9.671875 C 16.804688 -10.023438 15.976562 -10.296875 14.96875 -10.484375 C 13.125 -10.847656 11.363281 -11.273438 9.6875 -11.765625 C 8.019531 -12.265625 6.546875 -12.941406 5.265625 -13.796875 C 3.992188 -14.660156 2.984375 -15.800781 2.234375 -17.21875 C 1.492188 -18.644531 1.125 -20.476562 1.125 -22.71875 C 1.125 -25.363281 1.84375 -27.519531 3.28125 -29.1875 C 4.726562 -30.851562 6.5625 -32.082031 8.78125 -32.875 C 11.007812 -33.675781 13.273438 -34.078125 15.578125 -34.078125 C 16.460938 -34.078125 17.328125 -34.039062 18.171875 -33.96875 C 19.023438 -33.90625 19.875 -33.734375 20.71875 -33.453125 C 20.820312 -33.429688 21.070312 -33.34375 21.46875 -33.1875 C 21.863281 -33.039062 22.253906 -32.898438 22.640625 -32.765625 C 23.035156 -32.628906 23.234375 -32.5625 23.234375 -32.5625 C 23.941406 -32.5625 24.546875 -32.8125 25.046875 -33.3125 C 25.554688 -33.820312 26.164062 -34.078125 26.875 -34.078125 C 27.78125 -34.078125 28.445312 -33.722656 28.875 -33.015625 C 29.300781 -32.316406 29.609375 -31.503906 29.796875 -30.578125 C 29.984375 -29.660156 30.128906 -28.878906 30.234375 -28.234375 C 30.316406 -27.734375 30.398438 -27.226562 30.484375 -26.71875 C 30.578125 -26.21875 30.625 -25.722656 30.625 -25.234375 C 30.625 -24.367188 30.421875 -23.554688 30.015625 -22.796875 C 29.617188 -22.035156 28.914062 -21.65625 27.90625 -21.65625 C 26.894531 -21.65625 26 -22.003906 25.21875 -22.703125 C 24.445312 -23.398438 23.675781 -24.195312 22.90625 -25.09375 C 22.132812 -26 21.242188 -26.800781 20.234375 -27.5 C 19.222656 -28.195312 17.960938 -28.546875 16.453125 -28.546875 Z M 16.453125 -28.546875 "/></g></g></g></svg>