<svg xmlns="http://www.w3.org/2000/svg" xmlns:xlink="http://www.w3.org/1999/xlink" width="500" zoomAndPan="magnify" viewBox="0 0 375 374.999991" height="500" preserveAspectRatio="xMidYMid meet" version="1.0"><defs><g/></defs><g fill="#ff914d" fill-opacity="1"><g transform="translate(40.366774, 210.288082)"><g><path d="M 17.96875 -6.296875 L 18.359375 -6.296875 C 20.984375 -11.347656 23.117188 -15.941406 24.765625 -20.078125 C 26.410156 -24.222656 27.234375 -26.929688 27.234375 -28.203125 C 27.234375 -28.585938 27.140625 -28.890625 26.953125 -29.109375 C 26.773438 -29.335938 26.332031 -29.59375 25.625 -29.875 C 25.507812 -29.914062 25.347656 -29.984375 25.140625 -30.078125 C 23.972656 -30.523438 23.390625 -31.003906 23.390625 -31.515625 C 23.390625 -32.179688 23.851562 -32.65625 24.78125 -32.9375 C 25.707031 -33.21875 27.242188 -33.359375 29.390625 -33.359375 C 31.566406 -33.359375 33.113281 -33.21875 34.03125 -32.9375 C 34.957031 -32.65625 35.421875 -32.179688 35.421875 -31.515625 C 35.421875 -31.046875 34.945312 -30.648438 34 -30.328125 C 33.550781 -30.179688 33.207031 -30.050781 32.96875 -29.9375 C 32.34375 -29.65625 31.835938 -29.269531 31.453125 -28.78125 C 31.066406 -28.300781 30.648438 -27.453125 30.203125 -26.234375 L 29.8125 -25.265625 C 23.125 -7.835938 18.984375 0.875 17.390625 0.875 C 16.421875 0.875 15.253906 -0.457031 13.890625 -3.125 C 12.523438 -5.789062 9.785156 -12.632812 5.671875 -23.65625 C 5.566406 -23.957031 5.40625 -24.394531 5.1875 -24.96875 C 4.289062 -27.488281 3.601562 -28.960938 3.125 -29.390625 C 2.914062 -29.585938 2.375 -29.835938 1.5 -30.140625 C 0.625 -30.441406 0.1875 -30.859375 0.1875 -31.390625 C 0.1875 -32.078125 0.691406 -32.578125 1.703125 -32.890625 C 2.710938 -33.203125 4.367188 -33.359375 6.671875 -33.359375 C 9.148438 -33.359375 10.90625 -33.207031 11.9375 -32.90625 C 12.96875 -32.601562 13.484375 -32.097656 13.484375 -31.390625 C 13.484375 -30.804688 12.867188 -30.332031 11.640625 -29.96875 C 11.390625 -29.882812 11.21875 -29.832031 11.125 -29.8125 C 10.71875 -29.664062 10.390625 -29.414062 10.140625 -29.0625 C 9.898438 -28.71875 9.78125 -28.320312 9.78125 -27.875 C 9.78125 -26.863281 10.535156 -24.332031 12.046875 -20.28125 C 13.566406 -16.226562 15.539062 -11.566406 17.96875 -6.296875 Z M 17.96875 -6.296875 "/></g></g></g><g fill="#ff914d" fill-opacity="1"><g transform="translate(74.785642, 210.288082)"><g><path d="M 23.84375 -19.609375 C 23.863281 -19.867188 23.878906 -20.140625 23.890625 -20.421875 C 23.898438 -20.703125 23.90625 -21.125 23.90625 -21.6875 C 23.90625 -24.976562 23.390625 -27.335938 22.359375 -28.765625 C 21.328125 -30.191406 19.648438 -30.90625 17.328125 -30.90625 C 16.140625 -30.90625 15.070312 -30.675781 14.125 -30.21875 C 13.1875 -29.769531 12.304688 -29.078125 11.484375 -28.140625 C 11.316406 -27.921875 11.0625 -27.585938 10.71875 -27.140625 C 9.632812 -25.609375 8.546875 -24.84375 7.453125 -24.84375 C 6.785156 -24.84375 6.25 -25.046875 5.84375 -25.453125 C 5.4375 -25.859375 5.234375 -26.410156 5.234375 -27.109375 C 5.234375 -28.691406 6.460938 -30.179688 8.921875 -31.578125 C 11.378906 -32.984375 14.203125 -33.6875 17.390625 -33.6875 C 21.367188 -33.6875 24.3125 -32.695312 26.21875 -30.71875 C 28.125 -28.738281 29.078125 -25.660156 29.078125 -21.484375 C 29.078125 -20.285156 29.050781 -18.6875 29 -16.6875 C 28.957031 -14.6875 28.9375 -13.285156 28.9375 -12.484375 C 28.9375 -8.566406 29.035156 -6.078125 29.234375 -5.015625 C 29.441406 -3.953125 29.804688 -3.421875 30.328125 -3.421875 C 30.546875 -3.421875 30.820312 -3.457031 31.15625 -3.53125 C 31.488281 -3.601562 31.695312 -3.640625 31.78125 -3.640625 C 32.082031 -3.640625 32.3125 -3.546875 32.46875 -3.359375 C 32.632812 -3.179688 32.71875 -2.941406 32.71875 -2.640625 C 32.71875 -1.890625 32.222656 -1.125 31.234375 -0.34375 C 30.242188 0.425781 29.210938 0.8125 28.140625 0.8125 C 26.867188 0.8125 25.476562 -0.566406 23.96875 -3.328125 C 23.84375 -3.554688 23.738281 -3.75 23.65625 -3.90625 L 23.203125 -3.90625 C 21.710938 -2.414062 20.140625 -1.316406 18.484375 -0.609375 C 16.828125 0.0976562 15 0.453125 13 0.453125 C 9.820312 0.453125 7.28125 -0.40625 5.375 -2.125 C 3.46875 -3.84375 2.515625 -6.15625 2.515625 -9.0625 C 2.515625 -12.507812 3.773438 -15.195312 6.296875 -17.125 C 8.828125 -19.0625 12.363281 -20.03125 16.90625 -20.03125 C 18.039062 -20.03125 19.179688 -19.992188 20.328125 -19.921875 C 21.484375 -19.847656 22.65625 -19.742188 23.84375 -19.609375 Z M 23.84375 -16.78125 C 22.707031 -16.96875 21.660156 -17.101562 20.703125 -17.1875 C 19.742188 -17.28125 18.851562 -17.328125 18.03125 -17.328125 C 14.757812 -17.328125 12.28125 -16.660156 10.59375 -15.328125 C 8.90625 -13.992188 8.0625 -12.054688 8.0625 -9.515625 C 8.0625 -7.410156 8.65625 -5.757812 9.84375 -4.5625 C 11.039062 -3.375 12.695312 -2.78125 14.8125 -2.78125 C 17.5 -2.78125 19.675781 -3.613281 21.34375 -5.28125 C 23.007812 -6.945312 23.84375 -9.15625 23.84375 -11.90625 Z M 23.84375 -16.78125 "/></g></g></g><g fill="#ff914d" fill-opacity="1"><g transform="translate(109.398055, 210.288082)"><g><path d="M 9.421875 -0.78125 C 8.773438 -0.132812 8.273438 0.59375 7.921875 1.40625 C 7.566406 2.226562 7.390625 3.082031 7.390625 3.96875 C 7.390625 6.03125 8.304688 7.679688 10.140625 8.921875 C 11.984375 10.160156 14.460938 10.78125 17.578125 10.78125 C 21.148438 10.78125 24.09375 10.03125 26.40625 8.53125 C 28.71875 7.039062 29.875 5.1875 29.875 2.96875 C 29.875 1.613281 29.441406 0.582031 28.578125 -0.125 C 27.722656 -0.832031 26.476562 -1.1875 24.84375 -1.1875 C 24.28125 -1.1875 22.804688 -1.039062 20.421875 -0.75 C 18.035156 -0.46875 15.914062 -0.328125 14.0625 -0.328125 C 13.164062 -0.328125 12.335938 -0.363281 11.578125 -0.4375 C 10.828125 -0.507812 10.109375 -0.625 9.421875 -0.78125 Z M 8.84375 -13.296875 C 7.3125 -14.265625 6.160156 -15.46875 5.390625 -16.90625 C 4.617188 -18.34375 4.234375 -20 4.234375 -21.875 C 4.234375 -25.382812 5.519531 -28.273438 8.09375 -30.546875 C 10.675781 -32.828125 13.945312 -33.96875 17.90625 -33.96875 C 19.175781 -33.96875 20.742188 -33.78125 22.609375 -33.40625 C 24.484375 -33.03125 25.734375 -32.84375 26.359375 -32.84375 C 27.328125 -32.84375 28.285156 -33.0625 29.234375 -33.5 C 30.179688 -33.945312 31.050781 -34.585938 31.84375 -35.421875 C 32.269531 -35.273438 32.597656 -35.035156 32.828125 -34.703125 C 33.054688 -34.367188 33.171875 -33.941406 33.171875 -33.421875 C 33.171875 -32.566406 32.828125 -31.75 32.140625 -30.96875 C 31.453125 -30.195312 30.453125 -29.519531 29.140625 -28.9375 C 29.691406 -28.007812 30.101562 -27.078125 30.375 -26.140625 C 30.644531 -25.210938 30.78125 -24.253906 30.78125 -23.265625 C 30.78125 -19.753906 29.441406 -16.835938 26.765625 -14.515625 C 24.085938 -12.191406 20.71875 -11.03125 16.65625 -11.03125 C 15.6875 -11.03125 14.726562 -11.125 13.78125 -11.3125 C 12.832031 -11.507812 11.914062 -11.789062 11.03125 -12.15625 C 10.082031 -11.789062 9.328125 -11.242188 8.765625 -10.515625 C 8.210938 -9.785156 7.9375 -8.988281 7.9375 -8.125 C 7.9375 -7.1875 8.359375 -6.40625 9.203125 -5.78125 C 10.054688 -5.15625 11.128906 -4.84375 12.421875 -4.84375 C 13.835938 -4.84375 16.125 -5.035156 19.28125 -5.421875 C 22.445312 -5.804688 24.894531 -6 26.625 -6 C 29.21875 -6 31.25 -5.347656 32.71875 -4.046875 C 34.195312 -2.742188 34.9375 -0.953125 34.9375 1.328125 C 34.9375 4.804688 33.191406 7.722656 29.703125 10.078125 C 26.222656 12.429688 21.804688 13.609375 16.453125 13.609375 C 12.304688 13.609375 8.96875 12.765625 6.4375 11.078125 C 3.90625 9.390625 2.640625 7.191406 2.640625 4.484375 C 2.640625 3.171875 2.972656 2.019531 3.640625 1.03125 C 4.304688 0.0390625 5.382812 -0.894531 6.875 -1.78125 C 5.644531 -2.3125 4.726562 -2.960938 4.125 -3.734375 C 3.519531 -4.515625 3.21875 -5.453125 3.21875 -6.546875 C 3.21875 -7.941406 3.691406 -9.207031 4.640625 -10.34375 C 5.585938 -11.488281 6.988281 -12.472656 8.84375 -13.296875 Z M 9.390625 -22.515625 C 9.390625 -19.847656 10.109375 -17.6875 11.546875 -16.03125 C 12.992188 -14.375 14.867188 -13.546875 17.171875 -13.546875 C 19.578125 -13.546875 21.550781 -14.375 23.09375 -16.03125 C 24.644531 -17.6875 25.421875 -19.804688 25.421875 -22.390625 C 25.421875 -25.078125 24.664062 -27.25 23.15625 -28.90625 C 21.65625 -30.5625 19.691406 -31.390625 17.265625 -31.390625 C 15.023438 -31.390625 13.148438 -30.550781 11.640625 -28.875 C 10.140625 -27.195312 9.390625 -25.078125 9.390625 -22.515625 Z M 9.390625 -22.515625 "/></g></g></g><g fill="#ff914d" fill-opacity="1"><g transform="translate(144.074984, 210.288082)"><g><path d="M 27.625 -1.515625 L 27.625 -4.296875 C 27.625 -4.660156 27.585938 -4.90625 27.515625 -5.03125 C 27.453125 -5.164062 27.359375 -5.234375 27.234375 -5.234375 C 26.929688 -5.234375 26.488281 -4.832031 25.90625 -4.03125 C 25.4375 -3.363281 25.039062 -2.859375 24.71875 -2.515625 C 23.707031 -1.378906 22.53125 -0.53125 21.1875 0.03125 C 19.84375 0.59375 18.304688 0.875 16.578125 0.875 C 12.578125 0.875 9.648438 -0.378906 7.796875 -2.890625 C 5.953125 -5.410156 5.03125 -9.40625 5.03125 -14.875 L 5.03125 -20.421875 C 5.03125 -23.566406 4.953125 -25.65625 4.796875 -26.6875 C 4.648438 -27.71875 4.394531 -28.363281 4.03125 -28.625 C 3.90625 -28.707031 3.300781 -28.816406 2.21875 -28.953125 C 1.144531 -29.097656 0.597656 -29.554688 0.578125 -30.328125 C 0.578125 -30.734375 0.773438 -31.109375 1.171875 -31.453125 C 1.578125 -31.796875 2.195312 -32.148438 3.03125 -32.515625 C 4.144531 -32.953125 5.257812 -33.300781 6.375 -33.5625 C 7.5 -33.832031 8.300781 -33.96875 8.78125 -33.96875 C 9.445312 -33.96875 9.898438 -33.800781 10.140625 -33.46875 C 10.390625 -33.132812 10.515625 -32.507812 10.515625 -31.59375 C 10.515625 -30.46875 10.429688 -28.5625 10.265625 -25.875 C 10.109375 -23.1875 10.03125 -21.054688 10.03125 -19.484375 L 10.03125 -17.65625 C 10.03125 -14.53125 10.097656 -12.257812 10.234375 -10.84375 C 10.378906 -9.425781 10.625 -8.253906 10.96875 -7.328125 C 11.445312 -6.015625 12.269531 -4.976562 13.4375 -4.21875 C 14.613281 -3.46875 15.992188 -3.09375 17.578125 -3.09375 C 19.191406 -3.09375 20.738281 -3.484375 22.21875 -4.265625 C 23.707031 -5.054688 25.003906 -6.171875 26.109375 -7.609375 C 26.640625 -8.296875 27.007812 -9.125 27.21875 -10.09375 C 27.4375 -11.0625 27.546875 -12.59375 27.546875 -14.6875 L 27.546875 -20.421875 C 27.546875 -23.546875 27.472656 -25.625 27.328125 -26.65625 C 27.179688 -27.6875 26.921875 -28.34375 26.546875 -28.625 C 26.421875 -28.707031 25.832031 -28.820312 24.78125 -28.96875 C 23.726562 -29.125 23.203125 -29.578125 23.203125 -30.328125 C 23.203125 -30.734375 23.390625 -31.113281 23.765625 -31.46875 C 24.140625 -31.820312 24.742188 -32.171875 25.578125 -32.515625 C 26.679688 -32.953125 27.800781 -33.300781 28.9375 -33.5625 C 30.082031 -33.832031 30.898438 -33.96875 31.390625 -33.96875 C 32.015625 -33.96875 32.445312 -33.804688 32.6875 -33.484375 C 32.925781 -33.160156 33.046875 -32.53125 33.046875 -31.59375 C 33.046875 -30.207031 32.96875 -28.082031 32.8125 -25.21875 C 32.664062 -22.363281 32.59375 -20.195312 32.59375 -18.71875 C 32.59375 -13.875 32.648438 -10.457031 32.765625 -8.46875 C 32.878906 -6.476562 33.078125 -5.269531 33.359375 -4.84375 C 33.554688 -4.539062 34.234375 -4.304688 35.390625 -4.140625 C 36.554688 -3.984375 37.140625 -3.53125 37.140625 -2.78125 C 37.140625 -2.019531 36.226562 -1.21875 34.40625 -0.375 C 32.59375 0.457031 30.859375 0.875 29.203125 0.875 C 28.617188 0.875 28.207031 0.707031 27.96875 0.375 C 27.738281 0.0390625 27.625 -0.585938 27.625 -1.515625 Z M 27.625 -1.515625 "/></g></g></g><g fill="#ff914d" fill-opacity="1"><g transform="translate(182.267993, 210.288082)"><g><path d="M 4.609375 -44.65625 C 4.609375 -45.6875 4.953125 -46.550781 5.640625 -47.25 C 6.328125 -47.945312 7.175781 -48.296875 8.1875 -48.296875 C 9.207031 -48.296875 10.03125 -47.992188 10.65625 -47.390625 C 11.289062 -46.796875 11.609375 -46.023438 11.609375 -45.078125 C 11.609375 -44.109375 11.265625 -43.28125 10.578125 -42.59375 C 9.890625 -41.90625 9.050781 -41.5625 8.0625 -41.5625 C 7.09375 -41.5625 6.273438 -41.851562 5.609375 -42.4375 C 4.941406 -43.03125 4.609375 -43.769531 4.609375 -44.65625 Z M 5.875 -12.546875 C 5.875 -17.734375 5.804688 -21.523438 5.671875 -23.921875 C 5.546875 -26.316406 5.332031 -27.742188 5.03125 -28.203125 C 4.84375 -28.503906 4.175781 -28.734375 3.03125 -28.890625 C 1.894531 -29.054688 1.328125 -29.515625 1.328125 -30.265625 C 1.328125 -30.691406 1.503906 -31.070312 1.859375 -31.40625 C 2.210938 -31.738281 2.828125 -32.085938 3.703125 -32.453125 C 4.785156 -32.890625 5.859375 -33.238281 6.921875 -33.5 C 7.984375 -33.769531 8.828125 -33.90625 9.453125 -33.90625 C 10.035156 -33.90625 10.441406 -33.738281 10.671875 -33.40625 C 10.910156 -33.070312 11.03125 -32.441406 11.03125 -31.515625 C 11.03125 -31.304688 11.019531 -30.6875 11 -29.65625 C 10.851562 -23.695312 10.78125 -17.660156 10.78125 -11.546875 C 10.78125 -8.617188 10.84375 -6.648438 10.96875 -5.640625 C 11.09375 -4.628906 11.304688 -3.984375 11.609375 -3.703125 C 11.847656 -3.492188 12.421875 -3.25 13.328125 -2.96875 C 14.234375 -2.6875 14.6875 -2.265625 14.6875 -1.703125 C 14.6875 -1.035156 14.175781 -0.539062 13.15625 -0.21875 C 12.144531 0.101562 10.554688 0.265625 8.390625 0.265625 C 6.109375 0.265625 4.457031 0.109375 3.4375 -0.203125 C 2.414062 -0.515625 1.90625 -1.015625 1.90625 -1.703125 C 1.90625 -2.265625 2.351562 -2.6875 3.25 -2.96875 C 4.15625 -3.25 4.726562 -3.492188 4.96875 -3.703125 C 5.289062 -4.003906 5.519531 -4.773438 5.65625 -6.015625 C 5.800781 -7.253906 5.875 -9.429688 5.875 -12.546875 Z M 5.875 -12.546875 "/></g></g></g><g fill="#ff914d" fill-opacity="1"><g transform="translate(198.719373, 210.288082)"><g><path d="M 10.640625 -28.75 C 10.640625 -28.363281 10.671875 -28.109375 10.734375 -27.984375 C 10.804688 -27.867188 10.90625 -27.8125 11.03125 -27.8125 C 11.332031 -27.8125 11.773438 -28.207031 12.359375 -29 C 12.828125 -29.664062 13.222656 -30.171875 13.546875 -30.515625 C 14.554688 -31.679688 15.726562 -32.546875 17.0625 -33.109375 C 18.394531 -33.679688 19.914062 -33.96875 21.625 -33.96875 C 24.695312 -33.96875 27.148438 -33.175781 28.984375 -31.59375 C 30.828125 -30.019531 32.113281 -27.597656 32.84375 -24.328125 C 32.976562 -23.742188 33.078125 -23.015625 33.140625 -22.140625 C 33.203125 -21.273438 33.234375 -20.113281 33.234375 -18.65625 C 33.234375 -18.175781 33.222656 -17.410156 33.203125 -16.359375 C 33.179688 -15.304688 33.171875 -14.476562 33.171875 -13.875 C 33.171875 -12.757812 33.1875 -11.578125 33.21875 -10.328125 C 33.25 -9.078125 33.296875 -7.773438 33.359375 -6.421875 C 33.398438 -5.429688 33.503906 -4.738281 33.671875 -4.34375 C 33.847656 -3.945312 34.15625 -3.617188 34.59375 -3.359375 C 34.757812 -3.242188 35.09375 -3.125 35.59375 -3 C 36.625 -2.71875 37.140625 -2.285156 37.140625 -1.703125 C 37.140625 -1.015625 36.632812 -0.515625 35.625 -0.203125 C 34.613281 0.109375 32.957031 0.265625 30.65625 0.265625 C 28.375 0.265625 26.726562 0.109375 25.71875 -0.203125 C 24.707031 -0.515625 24.203125 -1.015625 24.203125 -1.703125 C 24.203125 -2.265625 24.695312 -2.703125 25.6875 -3.015625 C 26.675781 -3.328125 27.296875 -3.6875 27.546875 -4.09375 C 27.765625 -4.4375 27.914062 -5.394531 28 -6.96875 C 28.09375 -8.539062 28.140625 -12.273438 28.140625 -18.171875 C 28.140625 -22.253906 27.5625 -25.164062 26.40625 -26.90625 C 25.257812 -28.644531 23.375 -29.515625 20.75 -29.515625 C 19.050781 -29.515625 17.46875 -29.140625 16 -28.390625 C 14.539062 -27.640625 13.238281 -26.519531 12.09375 -25.03125 C 11.582031 -24.414062 11.222656 -23.71875 11.015625 -22.9375 C 10.816406 -22.164062 10.71875 -21.015625 10.71875 -19.484375 L 10.71875 -17.09375 C 10.71875 -12.257812 10.757812 -8.972656 10.84375 -7.234375 C 10.925781 -5.503906 11.078125 -4.457031 11.296875 -4.09375 C 11.554688 -3.6875 12.1875 -3.328125 13.1875 -3.015625 C 14.1875 -2.703125 14.6875 -2.265625 14.6875 -1.703125 C 14.6875 -1.015625 14.171875 -0.515625 13.140625 -0.203125 C 12.117188 0.109375 10.46875 0.265625 8.1875 0.265625 C 5.894531 0.265625 4.226562 0.109375 3.1875 -0.203125 C 2.15625 -0.515625 1.640625 -1.015625 1.640625 -1.703125 C 1.640625 -2.265625 2.140625 -2.703125 3.140625 -3.015625 C 4.140625 -3.328125 4.769531 -3.6875 5.03125 -4.09375 C 5.269531 -4.53125 5.4375 -5.707031 5.53125 -7.625 C 5.625 -9.550781 5.671875 -12.707031 5.671875 -17.09375 C 5.671875 -20.425781 5.601562 -23.007812 5.46875 -24.84375 C 5.332031 -26.675781 5.125 -27.796875 4.84375 -28.203125 C 4.644531 -28.503906 3.972656 -28.734375 2.828125 -28.890625 C 1.691406 -29.054688 1.125 -29.515625 1.125 -30.265625 C 1.125 -31.035156 2.03125 -31.84375 3.84375 -32.6875 C 5.664062 -33.539062 7.40625 -33.96875 9.0625 -33.96875 C 9.644531 -33.96875 10.050781 -33.796875 10.28125 -33.453125 C 10.519531 -33.109375 10.640625 -32.460938 10.640625 -31.515625 Z M 10.640625 -28.75 "/></g></g></g><g fill="#ff914d" fill-opacity="1"><g transform="translate(236.912381, 210.288082)"><g><path d="M 10.640625 -28.75 C 10.640625 -28.363281 10.671875 -28.109375 10.734375 -27.984375 C 10.804688 -27.867188 10.90625 -27.8125 11.03125 -27.8125 C 11.332031 -27.8125 11.773438 -28.207031 12.359375 -29 C 12.828125 -29.664062 13.222656 -30.171875 13.546875 -30.515625 C 14.554688 -31.679688 15.726562 -32.546875 17.0625 -33.109375 C 18.394531 -33.679688 19.914062 -33.96875 21.625 -33.96875 C 24.695312 -33.96875 27.148438 -33.175781 28.984375 -31.59375 C 30.828125 -30.019531 32.113281 -27.597656 32.84375 -24.328125 C 32.976562 -23.742188 33.078125 -23.015625 33.140625 -22.140625 C 33.203125 -21.273438 33.234375 -20.113281 33.234375 -18.65625 C 33.234375 -18.175781 33.222656 -17.410156 33.203125 -16.359375 C 33.179688 -15.304688 33.171875 -14.476562 33.171875 -13.875 C 33.171875 -12.5 33.210938 -10.207031 33.296875 -7 C 33.296875 -6.738281 33.296875 -6.546875 33.296875 -6.421875 C 33.378906 -5.390625 33.503906 -4.6875 33.671875 -4.3125 C 33.847656 -3.9375 34.15625 -3.617188 34.59375 -3.359375 C 34.757812 -3.242188 35.09375 -3.125 35.59375 -3 C 36.625 -2.71875 37.140625 -2.285156 37.140625 -1.703125 C 37.140625 -1.015625 36.632812 -0.515625 35.625 -0.203125 C 34.613281 0.109375 32.957031 0.265625 30.65625 0.265625 C 28.375 0.265625 26.726562 0.109375 25.71875 -0.203125 C 24.707031 -0.515625 24.203125 -1.015625 24.203125 -1.703125 C 24.203125 -2.265625 24.695312 -2.703125 25.6875 -3.015625 C 26.675781 -3.328125 27.296875 -3.6875 27.546875 -4.09375 C 27.765625 -4.4375 27.914062 -5.394531 28 -6.96875 C 28.09375 -8.539062 28.140625 -12.273438 28.140625 -18.171875 C 28.140625 -22.253906 27.5625 -25.164062 26.40625 -26.90625 C 25.257812 -28.644531 23.375 -29.515625 20.75 -29.515625 C 19.050781 -29.515625 17.46875 -29.140625 16 -28.390625 C 14.539062 -27.640625 13.238281 -26.519531 12.09375 -25.03125 C 11.582031 -24.414062 11.222656 -23.71875 11.015625 -22.9375 C 10.816406 -22.164062 10.71875 -21.015625 10.71875 -19.484375 L 10.71875 -17.09375 C 10.71875 -12.257812 10.757812 -8.972656 10.84375 -7.234375 C 10.925781 -5.503906 11.078125 -4.457031 11.296875 -4.09375 C 11.554688 -3.6875 12.1875 -3.328125 13.1875 -3.015625 C 14.1875 -2.703125 14.6875 -2.265625 14.6875 -1.703125 C 14.6875 -1.015625 14.171875 -0.515625 13.140625 -0.203125 C 12.117188 0.109375 10.46875 0.265625 8.1875 0.265625 C 5.894531 0.265625 4.226562 0.109375 3.1875 -0.203125 C 2.15625 -0.515625 1.640625 -1.015625 1.640625 -1.703125 C 1.640625 -2.265625 2.140625 -2.703125 3.140625 -3.015625 C 4.140625 -3.328125 4.769531 -3.6875 5.03125 -4.09375 C 5.269531 -4.476562 5.4375 -5.734375 5.53125 -7.859375 C 5.625 -9.992188 5.671875 -14.179688 5.671875 -20.421875 C 5.671875 -28.859375 5.601562 -34.660156 5.46875 -37.828125 C 5.332031 -41.003906 5.09375 -42.847656 4.75 -43.359375 C 4.570312 -43.640625 3.898438 -43.859375 2.734375 -44.015625 C 1.578125 -44.179688 1 -44.640625 1 -45.390625 C 1 -45.804688 1.191406 -46.1875 1.578125 -46.53125 C 1.960938 -46.875 2.578125 -47.226562 3.421875 -47.59375 C 4.554688 -48.019531 5.675781 -48.367188 6.78125 -48.640625 C 7.894531 -48.910156 8.703125 -49.046875 9.203125 -49.046875 C 9.835938 -49.046875 10.28125 -48.878906 10.53125 -48.546875 C 10.78125 -48.210938 10.90625 -47.582031 10.90625 -46.65625 C 10.90625 -46.375 10.882812 -45.628906 10.84375 -44.421875 C 10.707031 -39.890625 10.640625 -35.585938 10.640625 -31.515625 Z M 10.640625 -28.75 "/></g></g></g><g fill="#ff914d" fill-opacity="1"><g transform="translate(275.105389, 210.288082)"><g><path d="M 23.84375 -19.609375 C 23.863281 -19.867188 23.878906 -20.140625 23.890625 -20.421875 C 23.898438 -20.703125 23.90625 -21.125 23.90625 -21.6875 C 23.90625 -24.976562 23.390625 -27.335938 22.359375 -28.765625 C 21.328125 -30.191406 19.648438 -30.90625 17.328125 -30.90625 C 16.140625 -30.90625 15.070312 -30.675781 14.125 -30.21875 C 13.1875 -29.769531 12.304688 -29.078125 11.484375 -28.140625 C 11.316406 -27.921875 11.0625 -27.585938 10.71875 -27.140625 C 9.632812 -25.609375 8.546875 -24.84375 7.453125 -24.84375 C 6.785156 -24.84375 6.25 -25.046875 5.84375 -25.453125 C 5.4375 -25.859375 5.234375 -26.410156 5.234375 -27.109375 C 5.234375 -28.691406 6.460938 -30.179688 8.921875 -31.578125 C 11.378906 -32.984375 14.203125 -33.6875 17.390625 -33.6875 C 21.367188 -33.6875 24.3125 -32.695312 26.21875 -30.71875 C 28.125 -28.738281 29.078125 -25.660156 29.078125 -21.484375 C 29.078125 -20.285156 29.050781 -18.6875 29 -16.6875 C 28.957031 -14.6875 28.9375 -13.285156 28.9375 -12.484375 C 28.9375 -8.566406 29.035156 -6.078125 29.234375 -5.015625 C 29.441406 -3.953125 29.804688 -3.421875 30.328125 -3.421875 C 30.546875 -3.421875 30.820312 -3.457031 31.15625 -3.53125 C 31.488281 -3.601562 31.695312 -3.640625 31.78125 -3.640625 C 32.082031 -3.640625 32.3125 -3.546875 32.46875 -3.359375 C 32.632812 -3.179688 32.71875 -2.941406 32.71875 -2.640625 C 32.71875 -1.890625 32.222656 -1.125 31.234375 -0.34375 C 30.242188 0.425781 29.210938 0.8125 28.140625 0.8125 C 26.867188 0.8125 25.476562 -0.566406 23.96875 -3.328125 C 23.84375 -3.554688 23.738281 -3.75 23.65625 -3.90625 L 23.203125 -3.90625 C 21.710938 -2.414062 20.140625 -1.316406 18.484375 -0.609375 C 16.828125 0.0976562 15 0.453125 13 0.453125 C 9.820312 0.453125 7.28125 -0.40625 5.375 -2.125 C 3.46875 -3.84375 2.515625 -6.15625 2.515625 -9.0625 C 2.515625 -12.507812 3.773438 -15.195312 6.296875 -17.125 C 8.828125 -19.0625 12.363281 -20.03125 16.90625 -20.03125 C 18.039062 -20.03125 19.179688 -19.992188 20.328125 -19.921875 C 21.484375 -19.847656 22.65625 -19.742188 23.84375 -19.609375 Z M 23.84375 -16.78125 C 22.707031 -16.96875 21.660156 -17.101562 20.703125 -17.1875 C 19.742188 -17.28125 18.851562 -17.328125 18.03125 -17.328125 C 14.757812 -17.328125 12.28125 -16.660156 10.59375 -15.328125 C 8.90625 -13.992188 8.0625 -12.054688 8.0625 -9.515625 C 8.0625 -7.410156 8.65625 -5.757812 9.84375 -4.5625 C 11.039062 -3.375 12.695312 -2.78125 14.8125 -2.78125 C 17.5 -2.78125 19.675781 -3.613281 21.34375 -5.28125 C 23.007812 -6.945312 23.84375 -9.15625 23.84375 -11.90625 Z M 23.84375 -16.78125 "/></g></g></g><g fill="#ff914d" fill-opacity="1"><g transform="translate(309.717803, 210.288082)"><g><path d="M 17.328125 -33.234375 C 17.753906 -33.492188 18.113281 -33.679688 18.40625 -33.796875 C 18.695312 -33.910156 18.953125 -33.96875 19.171875 -33.96875 C 19.960938 -33.96875 20.753906 -33.226562 21.546875 -31.75 C 22.347656 -30.28125 22.75 -28.6875 22.75 -26.96875 C 22.75 -26.238281 22.597656 -25.671875 22.296875 -25.265625 C 21.992188 -24.859375 21.582031 -24.65625 21.0625 -24.65625 C 20.3125 -24.65625 19.644531 -25.300781 19.0625 -26.59375 C 18.9375 -26.863281 18.84375 -27.066406 18.78125 -27.203125 C 18.03125 -28.796875 17.222656 -29.867188 16.359375 -30.421875 C 15.492188 -30.984375 14.332031 -31.265625 12.875 -31.265625 C 11.34375 -31.265625 10.046875 -30.785156 8.984375 -29.828125 C 7.921875 -28.867188 7.390625 -27.691406 7.390625 -26.296875 C 7.390625 -23.796875 10.109375 -21.382812 15.546875 -19.0625 C 16.628906 -18.59375 17.457031 -18.226562 18.03125 -17.96875 C 19.90625 -17.132812 21.363281 -15.9375 22.40625 -14.375 C 23.445312 -12.8125 23.96875 -11.0625 23.96875 -9.125 C 23.96875 -6.15625 22.898438 -3.734375 20.765625 -1.859375 C 18.640625 0.00390625 15.878906 0.9375 12.484375 0.9375 C 11.410156 0.9375 10.191406 0.757812 8.828125 0.40625 C 7.460938 0.0507812 6.640625 -0.125 6.359375 -0.125 C 6.054688 -0.125 5.648438 -0.0078125 5.140625 0.21875 C 4.640625 0.457031 4.289062 0.578125 4.09375 0.578125 C 3.488281 0.578125 2.851562 -0.203125 2.1875 -1.765625 C 1.519531 -3.335938 1.1875 -4.972656 1.1875 -6.671875 C 1.1875 -7.316406 1.363281 -7.835938 1.71875 -8.234375 C 2.082031 -8.640625 2.539062 -8.84375 3.09375 -8.84375 C 3.71875 -8.84375 4.40625 -8.175781 5.15625 -6.84375 C 5.4375 -6.320312 5.65625 -5.929688 5.8125 -5.671875 C 6.5 -4.492188 7.414062 -3.582031 8.5625 -2.9375 C 9.71875 -2.289062 11.003906 -1.96875 12.421875 -1.96875 C 14.378906 -1.96875 15.96875 -2.492188 17.1875 -3.546875 C 18.414062 -4.597656 19.03125 -5.953125 19.03125 -7.609375 C 19.03125 -8.921875 18.675781 -10.035156 17.96875 -10.953125 C 17.257812 -11.867188 16.097656 -12.710938 14.484375 -13.484375 C 13.898438 -13.765625 12.988281 -14.140625 11.75 -14.609375 C 8.457031 -15.898438 6.078125 -17.25 4.609375 -18.65625 C 3.773438 -19.445312 3.132812 -20.359375 2.6875 -21.390625 C 2.25 -22.421875 2.03125 -23.53125 2.03125 -24.71875 C 2.03125 -27.40625 3.03125 -29.617188 5.03125 -31.359375 C 7.03125 -33.097656 9.582031 -33.96875 12.6875 -33.96875 C 13.320312 -33.96875 14.023438 -33.90625 14.796875 -33.78125 C 15.578125 -33.65625 16.421875 -33.472656 17.328125 -33.234375 Z M 17.328125 -33.234375 "/></g></g></g></svg>